<svg xmlns="http://www.w3.org/2000/svg" viewBox="0 0 3154 1250"><path fill="currentColor" d="M3117.3 -463.8C3113.0 -439.0 3100.0 -364.3 3091.4 -315.2C3082.8 -266.1 3071.3 -211.2 3065.9 -169.1C3060.4 -126.9 3061.3 -98.5 3058.9 -62.2C3056.5 -25.8 3052.5 16.2 3051.5 49.1C3050.4 82.1 3052.3 106.1 3052.6 135.7C3052.8 165.3 3053.7 196.5 3053.0 226.6C3052.3 256.8 3049.8 287.1 3048.4 316.7C3046.9 346.2 3046.7 377.6 3044.2 404.0C3041.7 430.5 3036.8 452.3 3033.4 475.3C3030.1 498.3 3030.6 522.3 3023.9 542.2C3017.1 562.1 3003.4 577.2 2993.1 594.9C2982.8 612.6 2967.3 639.5 2962.1 648.4L2706.6 581.9C2706.5 571.6 2706.0 540.8 2705.7 520.1C2705.4 499.3 2700.8 478.5 2704.9 457.4C2709.1 436.2 2722.4 413.9 2730.9 393.3C2739.3 372.7 2746.2 356.1 2755.6 333.7C2765.0 311.2 2776.9 283.3 2787.4 258.8C2797.9 234.3 2810.1 211.4 2818.8 186.6C2827.5 161.8 2832.6 136.1 2839.6 109.8C2846.7 83.5 2855.3 60.3 2861.2 28.7C2867.0 -3.0 2870.3 -43.0 2875.0 -79.9C2879.6 -116.9 2883.0 -148.8 2889.3 -192.9C2895.5 -237.0 2904.7 -294.3 2912.3 -344.5C2919.9 -394.6 2931.2 -468.7 2935.0 -493.6ZM3009.2 535.3C3005.0 548.2 2992.0 587.7 2984.0 612.6C2976.0 637.6 2968.4 661.6 2961.1 684.8C2953.9 708.0 2947.1 730.5 2940.7 752.0C2934.2 773.6 2928.2 794.3 2922.5 814.2C2916.9 834.2 2911.6 853.2 2906.7 871.5C2901.8 889.7 2897.3 907.1 2893.2 923.7C2889.1 940.3 2885.4 955.9 2882.1 970.9C2878.7 985.9 2874.6 1006.4 2873.1 1013.6A31.3 31.3 0 0 0 2811.3 1003.0C2812.3 995.7 2814.8 974.4 2817.2 958.8C2819.5 943.2 2822.3 926.5 2825.4 909.2C2828.6 891.9 2832.1 873.7 2836.1 854.8C2840.0 835.8 2844.3 816.0 2849.0 795.4C2853.7 774.9 2858.8 753.5 2864.2 731.2C2869.7 709.0 2875.6 686.0 2881.8 662.1C2888.1 638.3 2894.7 613.6 2901.7 588.1C2908.8 562.7 2920.2 522.5 2923.9 509.4A44.5 44.5 0 0 0 3009.2 535.3ZM2938.9 541.5C2933.4 554.8 2916.6 595.6 2906.1 621.3C2895.6 647.1 2885.5 672.1 2875.9 696.2C2866.2 720.4 2857.0 743.7 2848.2 766.3C2839.4 788.8 2831.0 810.6 2823.1 831.5C2815.2 852.5 2807.6 872.6 2800.6 892.0C2793.5 911.3 2786.8 929.8 2780.6 947.6C2774.4 965.3 2768.6 982.2 2763.2 998.3C2757.8 1014.5 2750.7 1036.9 2748.2 1044.6A31.3 31.3 0 0 0 2687.9 1027.4C2689.9 1019.4 2695.5 996.3 2699.9 979.5C2704.4 962.7 2709.3 945.0 2714.6 926.5C2719.9 908.1 2725.6 888.8 2731.7 868.8C2737.9 848.8 2744.5 828.0 2751.5 806.4C2758.5 784.8 2765.9 762.4 2773.8 739.2C2781.6 716.0 2789.9 692.0 2798.6 667.2C2807.3 642.5 2816.5 616.9 2826.0 590.5C2835.5 564.2 2850.9 522.8 2855.9 509.2A44.5 44.5 0 0 0 2938.9 541.5ZM2879.4 511.3C2873.0 523.5 2853.4 560.9 2841.2 584.6C2829.0 608.2 2817.3 631.0 2806.1 653.1C2794.9 675.2 2784.2 696.6 2774.0 717.1C2763.8 737.7 2754.1 757.5 2744.9 776.6C2735.6 795.6 2726.9 813.9 2718.7 831.4C2710.4 848.9 2702.7 865.7 2695.5 881.7C2688.2 897.7 2681.5 912.8 2675.2 927.3C2668.9 941.8 2660.7 961.8 2657.8 968.7A29.7 29.7 0 0 0 2602.3 947.7C2604.7 940.5 2611.5 919.7 2616.8 904.5C2622.2 889.2 2628.1 873.1 2634.5 856.3C2640.9 839.5 2647.8 822.0 2655.1 803.7C2662.5 785.4 2670.4 766.4 2678.7 746.6C2687.1 726.8 2695.9 706.3 2705.2 685.0C2714.6 663.7 2724.4 641.7 2734.7 618.9C2745.0 596.1 2755.9 572.5 2767.2 548.2C2778.5 523.9 2796.6 485.7 2802.5 473.2A42.9 42.9 0 0 0 2879.4 511.3ZM2844.9 457.4C2837.2 466.6 2813.3 495.0 2798.5 512.9C2783.8 530.7 2769.8 547.9 2756.4 564.4C2743.1 581.0 2730.4 597.0 2718.4 612.3C2706.5 627.6 2695.2 642.4 2684.6 656.5C2674.0 670.6 2664.1 684.0 2654.9 696.9C2645.7 709.7 2637.2 722.0 2629.3 733.6C2621.5 745.1 2614.5 756.0 2608.0 766.4C2601.5 776.8 2593.3 791.1 2590.4 796.0A26.4 26.4 0 0 0 2543.9 771.0C2546.5 765.7 2553.6 750.2 2559.6 738.8C2565.6 727.4 2572.3 715.2 2579.7 702.5C2587.1 689.8 2595.1 676.5 2603.9 662.6C2612.6 648.8 2622.0 634.3 2632.1 619.2C2642.2 604.2 2653.0 588.5 2664.4 572.3C2675.9 556.0 2688.0 539.2 2700.8 521.7C2713.6 504.2 2727.2 486.1 2741.3 467.5C2755.5 448.9 2778.4 419.5 2785.8 409.9A37.9 37.9 0 0 0 2844.9 457.4ZM3033.7 210.3C3033.4 223.1 3032.2 262.3 3031.9 286.8C3031.6 311.2 3031.6 334.5 3031.9 356.9C3032.2 379.3 3032.8 400.8 3033.7 421.4C3034.6 441.9 3035.7 461.5 3037.2 480.1C3038.7 498.7 3040.5 516.3 3042.5 533.0C3044.6 549.7 3046.9 565.5 3049.5 580.2C3052.1 595.0 3054.9 608.5 3058.2 621.6C3061.4 634.6 3067.1 652.4 3068.9 658.6A33.0 33.0 0 0 0 3006.5 680.2C3003.9 673.8 2995.9 655.7 2991.0 641.8C2986.1 627.8 2981.4 612.5 2977.1 596.5C2972.8 580.5 2968.8 563.6 2965.2 545.8C2961.6 528.0 2958.3 509.3 2955.3 489.6C2952.3 470.0 2949.6 449.5 2947.3 428.0C2945.0 406.6 2942.9 384.2 2941.2 360.9C2939.5 337.6 2938.1 313.3 2937.0 288.3C2935.9 263.2 2935.1 223.6 2934.7 210.7A49.5 49.5 0 0 0 3033.7 210.3ZM36 897V365H124L128 485L117 482Q127 421 157 387Q186 353 231 353Q279 353 303 387Q328 421 334 488H323Q332 424 364 388Q396 353 444 353Q507 353 535 396Q564 440 564 538V897H466V555Q466 491 452 466Q439 441 411 441Q393 441 379 453Q364 465 356 491Q348 516 348 557V897H252V555Q252 493 240 467Q227 441 198 441Q179 441 165 453Q151 465 143 491Q134 516 134 557V897ZM888 909Q817 909 766 885Q715 861 687 820Q659 780 655 730L758 724Q766 767 798 793Q830 818 889 818Q944 818 973 803Q1002 788 1002 756Q1002 736 992 723Q982 709 954 700Q927 690 874 680Q795 665 750 644Q706 624 687 592Q668 561 668 516Q668 470 691 433Q715 396 761 375Q807 353 875 353Q946 353 992 377Q1038 402 1064 441Q1090 480 1097 526L994 532Q988 506 973 487Q958 467 933 456Q908 444 875 444Q822 444 797 465Q772 486 772 516Q772 540 784 555Q796 569 824 579Q852 588 900 597Q981 610 1025 631Q1069 651 1087 681Q1105 711 1105 755Q1105 803 1078 838Q1050 872 1002 890Q953 909 888 909Z"/><path style="fill:var(--pink,#ff3d7f)" d="M2853.8 940C2870.8 942.9 2881.9 962.1 2878.4 982.8C2865.1 1060.5 2826.5 1157 2811.2 1190.5C2807.9 1153.8 2803.3 1050 2816.5 972.3C2820.1 951.6 2836.8 937.1 2853.8 940ZM2737.1 969.4C2753.7 974.1 2762.4 994.9 2756.5 1015.6C2734.3 1093.3 2684.5 1187.5 2665.4 1220C2666.4 1182.3 2674 1076 2696.2 998.3C2702.2 977.7 2720.6 964.6 2737.1 969.4ZM2654.5 893.4C2669.8 899.2 2676.2 919.9 2668.8 939.6C2641 1013.2 2585.6 1101 2564.7 1131.1C2569 1094.7 2585.4 992.3 2613.3 918.6C2620.7 899 2639.2 887.6 2654.5 893.4ZM2600 722.5C2612.7 729.4 2615.7 748.9 2606.6 766C2572.2 829.9 2511.5 903.7 2489 928.9C2497.6 896.2 2525.7 804.9 2560.1 741C2569.2 723.9 2587.2 715.6 2600 722.5ZM3014.9 603.9C3032.1 598 3051.4 608.5 3058 627.2C3082.5 697.8 3092.3 796.4 3094.1 831.5C3073.6 802.9 3020.2 719.4 2995.6 648.9C2989.1 630.1 2997.8 609.9 3014.9 603.9ZM1322 897V765H1458V897ZM1322 518V386H1458V518ZM1521 1007 1823 147H1919L1617 1007ZM1911 1007 2213 147H2309L2007 1007Z"/></svg>
